<?xml version="1.0" encoding="iso-8859-1"?>
<!-- Uploaded to: SVG Repo, www.svgrepo.com, Generator: SVG Repo Mixer Tools -->
<!DOCTYPE svg PUBLIC "-//W3C//DTD SVG 1.1//EN" "http://www.w3.org/Graphics/SVG/1.1/DTD/svg11.dtd">
<svg fill="#000000" height="800px" width="800px" version="1.1" id="Capa_1" xmlns="http://www.w3.org/2000/svg" xmlns:xlink="http://www.w3.org/1999/xlink" 
	 viewBox="0 0 303.124 303.124" xml:space="preserve">
<g>
	<path d="M286.593,153.702c0-0.027,0-0.114,0-0.142c0.001-0.113,0.001-0.227,0-0.339l-0.053-26.418c0-0.003,0-0.005,0-0.008
		c0.015-0.313,0.011-0.626,0.021-0.939c0.015-0.591,0.026-1.185,0.021-1.79c-0.003-0.528-0.019-1.055-0.038-1.582
		c-0.007-0.17-0.005-0.337-0.013-0.508c-0.002-0.171-0.012-0.341-0.028-0.509c-0.006-0.097-0.018-0.193-0.023-0.29
		c-0.042-0.684-0.098-1.366-0.167-2.048c-0.032-0.334-0.071-0.665-0.11-0.996c-0.071-0.6-0.146-1.198-0.239-1.795
		c-0.076-0.499-0.168-0.992-0.258-1.486c-0.082-0.444-0.155-0.89-0.249-1.333c-0.203-0.968-0.428-1.927-0.684-2.871
		c-0.938-3.449-2.248-6.836-3.896-10.073c-3.353-7.788-7.315-15.357-11.778-22.498c-15.182-24.316-36.452-44.352-61.511-57.94
		C183.295,6.963,155.839,0,128.189,0c-11.62,0-23.149,1.226-34.414,3.627C75.001,7.63,56.96,14.899,40.454,25.205
		c-0.014,0.008-0.025,0.018-0.039,0.026c-1.057,0.66-2.088,1.348-3.108,2.048c-0.266,0.182-0.53,0.364-0.793,0.548
		c-0.975,0.685-1.937,1.383-2.877,2.104c-0.255,0.194-0.502,0.396-0.755,0.594c-0.71,0.557-1.41,1.124-2.101,1.7
		c-0.337,0.282-0.676,0.562-1.009,0.848c-0.791,0.682-1.568,1.376-2.332,2.084c-0.406,0.376-0.804,0.76-1.202,1.144
		c-0.447,0.431-0.888,0.867-1.325,1.307c-0.658,0.662-1.304,1.335-1.938,2.018c-0.392,0.42-0.783,0.84-1.165,1.268
		c-0.45,0.503-0.893,1.013-1.331,1.526c-0.3,0.353-0.593,0.71-0.888,1.067c-0.709,0.86-1.4,1.732-2.075,2.619
		c-0.277,0.365-0.554,0.729-0.825,1.099c-0.399,0.543-0.796,1.088-1.182,1.641c-0.445,0.635-0.877,1.278-1.305,1.926
		c-0.404,0.614-0.799,1.233-1.188,1.857c-0.335,0.537-0.663,1.078-0.985,1.622c-0.265,0.446-0.533,0.89-0.789,1.342
		c-0.522,0.919-1.023,1.85-1.512,2.788c-0.191,0.368-0.378,0.739-0.564,1.111c-0.497,0.991-0.981,1.989-1.439,2.999
		c-0.039,0.086-0.08,0.171-0.119,0.257c-0.517,1.149-1.001,2.313-1.467,3.486c-0.075,0.189-0.152,0.379-0.226,0.57
		c-0.476,1.219-0.926,2.449-1.345,3.691c-0.017,0.048-0.031,0.097-0.048,0.145c-0.425,1.266-0.82,2.543-1.187,3.832
		c-0.02,0.069-0.041,0.137-0.061,0.206c-0.35,1.239-0.669,2.488-0.963,3.746c-0.027,0.115-0.062,0.227-0.088,0.342
		c-0.038,0.166-0.065,0.334-0.103,0.501c-0.217,0.968-0.418,1.94-0.602,2.919c-0.142,0.748-0.266,1.498-0.388,2.247
		c-0.079,0.49-0.159,0.979-0.229,1.472c-0.533,3.664-0.828,7.331-0.888,10.988c-0.003,0.073-0.014,0.146-0.014,0.219l0.001,1.616
		c0.002,0.423-0.009,0.847,0,1.269l0.011,28.111c0,0.11,0.003,0.22,0.009,0.328c0.041,16.001,4.547,31.633,13.04,45.228
		c15.815,25.33,43.106,40.451,73.003,40.451c16.056,0,31.772-4.515,45.453-13.058c11.763-7.349,25.275-11.233,39.076-11.233
		c11.865,0,23.695,2.886,34.23,8.348c2.963,1.81,13.185,6.565,17.284,7.509c3.912,0.904,7.915,1.363,11.897,1.363
		c24.616,0,45.688-16.771,51.243-40.788c0.879-3.809,1.329-7.749,1.34-11.718c0.004-0.099,0.006-0.199,0.006-0.298L286.593,153.702z
		 M128.189,12c53.543,0,102.413,27.077,130.731,72.434c4.177,6.682,7.881,13.767,11.009,21.058c0.055,0.128,0.114,0.254,0.178,0.378
		c0.608,1.183,1.15,2.393,1.638,3.618c0.039,0.095,0.083,0.189,0.12,0.285c0.515,1.323,0.958,2.665,1.326,4.018
		c0.196,0.723,0.364,1.448,0.521,2.174c0.434,2.07,0.711,4.212,0.822,6.397c0.003,0.053,0.006,0.106,0.01,0.159
		c0.063,1.347,0.064,2.611,0.004,3.861c-0.004,0.082-0.005,0.163-0.006,0.244c-0.13,2.312-0.449,4.625-0.983,6.93
		c-4.289,18.54-20.553,31.489-39.551,31.488c-3.074,0-6.168-0.355-9.2-1.056c-2.436-0.56-11.899-4.868-13.625-5.99
		c-0.191-0.129-0.389-0.248-0.593-0.354c-12.294-6.424-26.124-9.82-39.994-9.82c-16.052,0-31.762,4.515-45.433,13.055
		c-11.771,7.351-25.291,11.236-39.097,11.236c-25.729,0-49.216-13.012-62.825-34.807c-7.173-11.486-10.982-24.416-11.237-37.614
		l-0.001-0.804c-0.003-0.446,0.006-0.893,0.01-1.339c0.01-0.123,0.021-0.245,0.022-0.37c0.061-4.432,0.519-8.794,1.334-13.051
		c0.129-0.664,0.263-1.326,0.409-1.988c0.069-0.316,0.136-0.632,0.209-0.947c0.238-1.013,0.497-2.019,0.775-3.015
		c0.061-0.221,0.126-0.44,0.188-0.66c0.299-1.034,0.612-2.061,0.953-3.076c0.008-0.022,0.014-0.044,0.021-0.067
		c0.342-1.013,0.712-2.012,1.095-3.005c0.1-0.258,0.199-0.516,0.302-0.772c0.37-0.928,0.755-1.848,1.161-2.757
		c0.128-0.287,0.266-0.571,0.397-0.856c0.295-0.639,0.601-1.272,0.913-1.901c0.191-0.385,0.381-0.77,0.579-1.151
		c0.389-0.75,0.792-1.492,1.206-2.226c0.267-0.473,0.543-0.939,0.82-1.406c0.218-0.367,0.44-0.73,0.665-1.093
		c0.533-0.864,1.085-1.716,1.654-2.557c0.175-0.258,0.347-0.517,0.524-0.773c0.364-0.524,0.736-1.043,1.115-1.558
		c0.17-0.232,0.345-0.46,0.518-0.69c0.658-0.874,1.336-1.733,2.034-2.579c0.206-0.249,0.41-0.499,0.619-0.745
		c0.4-0.472,0.806-0.94,1.218-1.403c0.278-0.311,0.565-0.616,0.849-0.923c0.608-0.658,1.229-1.307,1.862-1.944
		c0.352-0.353,0.705-0.704,1.065-1.05c0.354-0.342,0.707-0.686,1.068-1.021c0.654-0.606,1.32-1.202,1.998-1.785
		c0.296-0.255,0.598-0.505,0.898-0.756c0.597-0.498,1.2-0.988,1.813-1.468c0.21-0.164,0.415-0.332,0.626-0.494
		c0.814-0.624,1.648-1.229,2.491-1.822c0.224-0.157,0.448-0.311,0.673-0.466c0.893-0.612,1.795-1.214,2.719-1.791
		C71.31,20.086,99.451,12,128.189,12z M234.007,195.044c-3.074,0-6.168-0.355-9.2-1.056c-2.436-0.56-11.899-4.868-13.625-5.99
		c-0.191-0.129-0.389-0.248-0.593-0.354c-12.294-6.424-26.124-9.82-39.994-9.82c-16.052,0-31.762,4.515-45.433,13.055
		c-11.771,7.351-25.291,11.236-39.097,11.236c-25.729,0-49.216-13.012-62.825-34.808c-4.306-6.892-7.41-14.393-9.249-22.206
		c15.94,24.459,42.75,39.015,72.074,39.015c16.056,0,31.772-4.515,45.453-13.058c11.763-7.349,25.275-11.233,39.076-11.233
		c11.865,0,23.695,2.886,34.23,8.348c2.963,1.81,13.185,6.565,17.284,7.509c3.912,0.904,7.914,1.363,11.897,1.363
		c0.001,0,0,0,0.001,0c16.096,0,30.676-7.174,40.394-18.853c-0.167,1.815-0.439,3.611-0.844,5.365
		C269.27,182.096,253.005,195.044,234.007,195.044z"/>
	<path d="M78.165,127.817c2.338,0.54,4.731,0.814,7.114,0.814c14.74,0,27.358-10.042,30.685-24.422
		c3.912-16.926-6.675-33.883-23.601-37.8c-2.342-0.542-4.737-0.816-7.123-0.816c-14.742,0-27.358,10.044-30.679,24.422
		c-1.897,8.199-0.487,16.647,3.971,23.787C62.99,120.942,69.962,125.919,78.165,127.817z M66.253,92.717
		c2.057-8.906,9.864-15.125,18.987-15.125c1.477,0,2.963,0.17,4.418,0.507c10.48,2.425,17.036,12.926,14.614,23.406
		c-2.061,8.905-9.87,15.125-18.993,15.125c-1.475,0-2.96-0.17-4.412-0.506c-5.078-1.175-9.396-4.257-12.156-8.678
		C65.951,103.025,65.078,97.795,66.253,92.717z"/>
</g>
</svg>