<?xml version="1.0" encoding="UTF-8"?>
<svg xmlns="http://www.w3.org/2000/svg" width="160" height="160" viewBox="0 0 160 160">
  <g fill="#ffffff" fill-opacity=".35">
    <g transform="translate(38 31) scale(4)">
      <path d="M16.69,24.33c-1.2.62-2.52-.41-3.49-1.42-.55-.57-1.06-1.17-1.55-1.84l-1.72-2.36c-.48-.66-.93-1.3-1.44-1.92-.28-.33-.55-.64-.9-.88-.97,2.69-2.36,5.24-4.12,6.99-.46.46-.93.85-1.46,1.17-.46.28-1.24.66-1.73.35-.14-.09-.29-.26-.29-.48-.03-1.51,1.18-3.65,1.78-4.86l.71-1.46c-.17-.11-.31-.31-.29-.55.19-3.08,1.12-6,2.62-8.22.42-.61.87-1.15,1.37-1.61.11-.1.22-.12.35-.07,1.56.54,2.72,1.34,4.14,2.34l1.51,1.06c.75.53,1.84,1.11,2.67,1.22.1-.2.17-.39.23-.61l.27-1.02c.07-.28.16-.53.3-.76.11-.2.31-.45.52-.4.61.14,1.17.55,1.65,1.09l.91,1.04c.68.77,1.4,1.43,2.15,2.05.15.13.24.28.24.54-.01,1.03-.67,1.76-.76,2.63-.05.53-.08,1.05-.1,1.59-.06,1.38-.14,2.74-.61,3.95-.6,1.56-1.68,2.26-2.98,2.44ZM16.49,23.42c1.13-.13,2.1-.7,2.6-2.09.42-1.16.46-2.54.52-3.84.03-.6.05-1.18.16-1.75s.54-1.28.67-1.9c-.95-.78-1.81-1.64-2.63-2.62-.51-.61-.91-1.07-1.58-1.31-.09.18-.16.35-.22.55l-.33,1.22c-.1.37-.39,1.05-.73,1.02-1.16-.11-2.4-.85-3.44-1.59l-1.63-1.16c-1.11-.77-2.19-1.45-3.39-1.86-2.05,2.02-3.3,5.28-3.6,8.73l.17.12c.22.16.29.49.18.76-.15.39-.31.74-.49,1.11l-.93,1.84c-.39.77-.98,2.04-1.13,2.97.76-.04,1.74-.86,2.33-1.44,1.78-1.76,3.13-4.32,4.07-7.01.17-.47.72-.12.97.08.67.55,1.43,1.58,1.99,2.36l1.4,1.95c.5.69.99,1.33,1.53,1.96.85,1,2.4,2.63,3.51,1.91Z"/>
  <path d="M11.06,8.18c-.11.12-.26.04-.33-.08-.22-.4.26-.51.44-1.22.34-1.3-1.28-2.6-1.65-4.17-.21-.9.08-1.67.56-2.22.11-.12.26-.06.34.09.08.14.05.32-.05.44-.38.47-.6,1.04-.33,1.76.12.33.28.63.45.92l.54.9c.5.83.9,1.84.49,2.82-.12.28-.27.53-.46.75Z"/>
  <path d="M15.64,7.73c-.11.13-.27.07-.35-.06-.09-.16-.06-.34.04-.46.37-.46.59-1.02.34-1.73-.09-.27-.21-.52-.35-.75l-.62-1.03c-.49-.82-.93-1.8-.55-2.8.11-.3.27-.55.45-.78.1-.13.25-.14.36.01.09.13.09.33-.01.46-.34.41-.58.92-.4,1.6.08.3.2.58.35.83l.63,1.06c.21.35.4.71.55,1.11.38,1.01.12,1.89-.44,2.56Z"/>
  <path d="M13.35,7.96c-.1.12-.25.06-.32-.05-.09-.14-.09-.32,0-.44.11-.15.21-.29.3-.46.42-.8-.02-1.63-.43-2.32l-.63-1.05c-.18-.3-.32-.64-.43-1-.28-.96.01-1.78.53-2.37.1-.12.25-.04.32.08.09.15.07.34-.03.46-.4.5-.61,1.07-.32,1.83s.84,1.45,1.23,2.23c.59,1.18.53,2.19-.23,3.09Z"/>
  <path d="M17.37,22.09c.14-.08.29,0,.34.19s0,.34-.14.41c-.37.23-.78.24-1.18.37-.3.1-.57.2-.9.08-.31-.11-.61-.28-.9-.51-.38-.3-.73-.64-1.08-1.02-.43-.48-.84-.96-1.23-1.5l-1.47-2.03c-.1-.13-.03-.37.05-.44.1-.09.22-.06.32.07l1.56,2.13c.4.54.81,1.01,1.25,1.48.29.31.58.57.91.82.23.18.48.3.72.38s.43-.04.64-.11c.37-.1.75-.11,1.1-.33Z"/>
  <path d="M4.03,20.48c-.11.15-.24.17-.36.03-.1-.12-.11-.34,0-.48,1.15-1.54,2.02-3.34,2.72-5.34.06-.17.19-.24.32-.16s.18.28.12.46c-.71,2.06-1.6,3.87-2.79,5.48Z"/>
    </g>
  </g>
</svg>
