<?xml version="1.0" encoding="UTF-8"?>
<svg id="Icons" xmlns="http://www.w3.org/2000/svg" viewBox="0 0 31.57 31.28" fill="#0f6a4b">
  <path d="M17.1,30.83c.05-.23.37-.33.27-.4l-1.39.2c-.11.02-.27,0-.35-.04-.16-.09-.2-.25-.18-.38.02-.14.14-.28.31-.31l2.55-.51c.25-.05.45-.22.54-.43.32-.75.56-1.49.69-2.32-.82,0-1.57-.19-2.32-.39-.66.39-1.42.65-2.26.66-.38.52-.78.99-1.23,1.47-.13.13-.26.27-.34.43-.22.39,0,.79.45.93.25.08.51.15.73.26.2.1.16.35.07.48-.1.16-.31.23-.52.17-.35-.1-.69-.23-1.02-.38-.21-.1-.41-.09-.62,0-.66.25-1.3.49-1.95.77-.14.06-.33.05-.47-.03-.09-.05-.2-.18-.2-.32,0-.24.37-.32.36-.48l-1.49.13c-.24.02-.45-.07-.49-.29-.04-.17.06-.42.31-.45l2.67-.39c.3-.04.56-.14.78-.33.72-.61,1.37-1.26,1.95-2.03-1.68-.49-2.51-1.16-3.4-2.45-.9-.34-1.75-.71-2.57-1.19-1.9-1.11-3.36-2.67-4.27-4.53-1.31-2.69-1.32-5.42-.23-8.19-1.17-.35-1.66-1.41-1.44-2.44.11-.5.37-.93.72-1.37-.73-.14-1.41,0-2.09.18-.25.07-.48-.02-.61-.17-.16-.19-.09-.39.05-.59.39-.54.95-.94,1.59-1.29-.55-.78-.9-1.7-.52-2.57.26-.6.92-.9,1.64-.78C2.97.59,3.47-.02,4.43,0c.43,0,.83.23,1.12.57l.46-.22c.43-.21.95-.21,1.42,0,1.02.47,1.03,1.73.47,2.56,1.52.7,2.5,2.09,2.99,3.47l.54,1.5c.22.62.55,1.18.99,1.7.37.43.81.76,1.35,1,.45.2.89.37,1.4.48,1.64.36,3.33.35,4.97-.02,1.27-.29,2.41-.83,3.38-1.61.17-.14.28-.3.37-.49.43-.86.93-1.67,1.54-2.45.45-.57.96-1.07,1.58-1.49.69-.47,1.77-.8,2.3.01.25.38.33.81.28,1.25l-.07.58.45-.09c.46-.09.88.12,1.07.5.41.83.07,1.83-.38,2.65,1.04.19,1.02,1.23.81,1.95-.13.43-.36.81-.62,1.21.61.39.53,1.16.35,1.73-.37,1.2-1.21,2.13-2.26,2.89-.38,2.48-1.44,4.56-3.79,5.97-.5.3-1.04.5-1.55.77-.31.36-.56.8-.95,1.12-.61.51-1.32.86-2.15,1.02l-.53,1.98c.5,1.53.99,1.1,1.68,1.45.2.1.19.34.1.5s-.3.24-.52.19c-.36-.08-.7-.2-1.04-.33-.15-.06-.34-.07-.49,0l-1.98.9c-.12.05-.32,0-.41-.05-.12-.07-.22-.2-.18-.37ZM7.09,2.6c.38-.37.55-1.28-.02-1.55-.24-.12-.52-.1-.76.03-.42.24-.53.66-.96.59-.11-.02-.27-.13-.32-.25l-.13-.32c-.08-.21-.29-.33-.51-.34-.24-.01-.43.1-.56.3-.33.49.05,1.01-.37,1.24s-.63-.29-1.17-.06c-.67.29-.42,1.4-.05,1.85,1.29-1.55,2.78-1.89,4.85-1.49ZM28.13,17.22c1.2-.72,2.04-1.66,2.33-2.93.03-.13.05-.5-.1-.52-.04,0-.14.03-.17.06-.35.28-.69.54-1.1.74-.2.1-.43.09-.58-.06-.12-.11-.19-.38,0-.5.56-.35,1.09-.73,1.51-1.22s.69-1.05.75-1.66c.01-.14-.02-.32-.14-.41-.29-.21-.74.36-.91.55-.2.22-.4.43-.63.63-.19.16-.44.18-.61.03-.14-.13-.19-.37-.03-.53.85-.83,1.61-1.73,1.89-2.87.06-.24.14-.84-.12-.98-.34-.19-.98.34-1.23.63-.35.41-.64.85-.93,1.29-.15.22-.4.3-.64.16-.21-.12-.26-.36-.1-.58l.63-.88c.5-.69.97-1.68.75-2.51-.28-1.02-1.83.45-2.16.81-.88.97-1.56,2.05-2.07,3.21-2.7,2.41-6.89,3.01-10.42,1.86-2.06-.67-3.02-2.14-3.62-3.94-.15-.43-.27-.85-.45-1.27-.63-1.52-1.8-2.83-3.67-3.11-.84-.12-1.67,0-2.39.42-.44.25-.86.66-.96,1.12-.05.24.03.39-.28.51-.38.15-.78.33-1.13.61.76.03,1.45.03,2.16.18.13.03.27.15.3.23.12.37-.67.65-1.03,1.66-.26.72-.05,1.56.81,1.79.34.09.67-.03.87-.29.32-.41.41-.93.3-1.42-.14-.6-.52-.93-.09-1.12.22-.1.52-.06.64.17.4.8.48,1.8.03,2.6-.23.4-.59.68-1.07.81-1.19,2.38-1.1,5.32-.02,7.71.55,1.23,1.41,2.29,2.47,3.21,1.2,1.03,2.59,1.81,4.15,2.29.14.04.23.2.3.31.49.8,1.2,1.45,2.12,1.84s1.99.44,2.92-.02c-1.12-.59-2.03-1.32-2.68-2.27-.14-.21-.04-.42.16-.52.22-.11.44-.05.58.14.88,1.22,2.18,2.1,3.74,2.53.95.26,1.95.26,2.87-.09s1.51-1.07,1.97-1.86c2.62-.76,4.43-2.9,4.93-5.3.09-.41.13-.8.19-1.22Z"/>
  <path d="M10.52,16.09c.2.54.46,1.02.85,1.46.77.89,1.77,1.56,2.94,2,1.62.6,3.36.76,5.09.51,1.25-.18,2.46-.54,3.55-1.25-1.32.1-2.55.08-3.75-.31-.23-.07-.37-.25-.32-.46.05-.18.28-.36.52-.29.72.23,1.45.35,2.22.35.86,0,1.7-.1,2.49-.39.34-.12.58-.36.77-.66l-1.03-.16c-1.47-.23-2.83-.81-3.95-1.69-.2-.16-.27-.38-.11-.56.14-.16.43-.21.63-.05,1.14.94,2.66,1.5,4.19,1.65l.97.1c.13.01.29.12.34.21.06.1.09.28.01.4-.75,1.21-1.85,2.21-3.21,2.89-2.59,1.28-5.62,1.43-8.39.55-1.32-.42-2.47-1.12-3.38-2.07-.56-.58-.96-1.23-1.22-1.96-.08-.23.07-.42.32-.47.18-.03.39.01.46.2Z"/>
  <path d="M5.83,5.23c-.28.26-.73.28-1.05.09-.26-.15-.39-.4-.35-.68.03-.23.22-.46.5-.55.35-.12.74-.02.96.25s.21.64-.06.89Z"/>
</svg>