<?xml version="1.0" encoding="UTF-8"?>
<svg id="Icons" xmlns="http://www.w3.org/2000/svg" viewBox="0 0 29.67 21.11">
  <path d="M21.18,20.15c-.04-4.39-2.91-7.85-6.36-7.84s-6.3,3.5-6.32,7.87c0,.51-.3.93-.72.92s-.7-.44-.7-.99c.04-2.21.64-4.33,1.79-6.07-1.13-1.79-3-2.47-4.7-1.7-1.6.72-2.74,2.64-2.74,4.84,0,.52-.31.92-.71.92-.43,0-.72-.43-.71-.97.05-2.67,1.26-5.04,3.2-6.19-1.57-1.71-1.66-4.69-.24-6.54s3.8-1.86,5.22-.02,1.35,4.83-.23,6.56c.76.47,1.39,1.08,1.92,1.86.66-.69,1.36-1.19,2.15-1.59-2.43-2.13-2.81-6.4-.87-9.13s5.4-2.77,7.37-.03,1.6,7.01-.85,9.16c.79.41,1.48.91,2.15,1.59.52-.77,1.14-1.38,1.92-1.86-1.56-1.72-1.66-4.65-.26-6.51s3.8-1.9,5.23-.06,1.37,4.81-.22,6.57c1.93,1.16,3.15,3.51,3.19,6.19,0,.51-.24.91-.64.97-.37.05-.77-.3-.77-.81,0-2.22-1.1-4.18-2.73-4.92-1.7-.78-3.6-.11-4.73,1.69,1.16,1.77,1.8,3.94,1.78,6.22,0,.51-.36.86-.71.84-.42-.02-.69-.42-.69-.96ZM14.51,1.78c-1.98.23-3.38,2.43-3.18,4.84s1.92,4.15,3.84,3.92,3.37-2.38,3.18-4.8-1.87-4.19-3.83-3.96ZM5.47,4.77c-1.26.07-2.18,1.4-2.11,2.92s1.1,2.66,2.32,2.59,2.15-1.36,2.1-2.88-1.06-2.7-2.31-2.63ZM24.03,4.77c-1.25.04-2.19,1.36-2.14,2.87s1.07,2.69,2.28,2.64,2.17-1.31,2.14-2.83-1.02-2.72-2.27-2.68Z"/>
</svg>