<svg xmlns="http://www.w3.org/2000/svg" viewBox="0 0 28.87 26.3" role="presentation" aria-hidden="true">
  <g fill="#f5d63a" stroke="none">
    <path d="M9.36,18.26c-.34.34-1.92.67-2.3.73-.51.07-.11-1.7.29-2.12L20.86,2.86c.27-.28,1.77-.38,2.13-.39.49-.02.4,1.61-.06,2.07l-13.57,13.72Z"/>
    <path d="M28.03,22.9c-1.46,1.73-18.57,3.39-18.63,2.76l-.16-1.83c6.14-.32,12.14-3.44,18.78-.93Z"/>
    <path d="M2.96,13.26c-.21.45-1.29,1.29-1.63,1.48-.45.27-1-1.41-.79-1.88L5.46,1.82c.19-.42,1.59-1.14,1.97-1.3.5-.21.96,1.4.73,1.89L2.96,13.26Z"/>
  </g>
</svg>
