<?xml version="1.0" encoding="UTF-8"?>
<svg id="Icons" xmlns="http://www.w3.org/2000/svg" viewBox="0 0 30.31 30.21">
  <path d="M15.76,29.28c-1.1-.44-2.27-1.04-2.86-2.12-2.63.6-5.75.59-8.34-.03-1.32-.32-3.05-.95-3.95-2C.3,24.76,0,24.29,0,23.78V4.89c0-.47.25-.9.52-1.25.69-.89,1.97-1.48,3.03-1.83,2.57-.84,5.74-.95,8.4-.52,1.63.28,3.42.78,4.7,1.87C19.21,1.68,22.7.34,25.65.05c.9-.09,2.08-.1,2.86.37.53.31.75.89.59,1.48-.28,1.02-1.33,1.92-2.17,2.58,1.07.39,2.16.91,2.88,1.79.25.37.5.78.5,1.26v18.77c0,.49-.22.93-.5,1.3-1.07,1.41-3.6,2.12-5.29,2.38-2.79.43-6.08.29-8.74-.7ZM18.91,7.5c2.07-.58,4.05-1.41,5.91-2.49,1.11-.64,2.41-1.54,3.19-2.54.28-.36.69-1.06.18-1.41-1.05-.71-3.77-.16-4.98.16-2.74.73-5.86,2.1-8.1,3.85-.44.35-.84.71-1.19,1.14-.33.39-.84,1.2-.21,1.56,1.17.67,3.9.09,5.2-.28ZM12.67,7.86l.03-.76c.02-.71.85-1.61,1.36-2.08.6-.55,1.24-1,1.93-1.46-1.18-.89-2.88-1.33-4.32-1.57-2.58-.41-5.75-.27-8.22.62-.89.32-1.99.86-2.51,1.67-.55.85-.03,1.67.67,2.2.41.31.85.55,1.33.76,2.82,1.19,6.75,1.31,9.73.62ZM26.63,10.11c.65-.22,1.25-.49,1.81-.86.82-.55,1.54-1.41.9-2.4-.63-.95-2.1-1.55-3.16-1.85-2.38,1.56-5.17,2.73-7.93,3.4-1.41.31-3.03.59-4.44.21.57.72,1.77,1.25,2.61,1.52,3.04.99,7.17.99,10.2-.03ZM12.68,11.02v-2.42c-2.5.51-5.04.52-7.53.05-1.54-.33-3.29-.88-4.44-2.01v1.65c0,.36.23.65.44.93.86.94,2.48,1.52,3.71,1.79,2.56.57,5.23.57,7.82.01ZM29.21,11.74c.2-.27.38-.57.38-.92v-1.58c-1.1,1.11-2.99,1.73-4.5,2.02-2.37.45-4.8.45-7.17,0-1.5-.28-3.41-.9-4.52-2.02v1.62c0,.33.18.6.36.86.98,1.18,3.1,1.8,4.57,2.05,1.94.33,3.9.35,5.84.08,1.6-.23,3.97-.84,5.04-2.11ZM12.68,20.21c-1.51,2.37-4.75,2.84-6.86,1.02s-2.13-5.07-.02-6.9,5.32-1.39,6.88.98v-3.55c-2.44.5-4.93.52-7.38.08-1.59-.32-3.4-.87-4.59-2.04v10.78c0,.41.28.77.55,1.04.96.99,2.81,1.56,4.15,1.81,2.41.45,4.87.42,7.28-.09v-3.12ZM29.11,24.15c.24-.27.48-.6.48-.98v-10.78c-1.15,1.14-2.88,1.68-4.43,2.01-2.36.45-4.78.46-7.14.03-1.59-.32-3.4-.86-4.61-2.04v10.78c0,.39.26.74.51,1,.88.95,2.63,1.53,3.89,1.79,2.42.5,4.92.5,7.35.01,1.28-.26,3.06-.83,3.97-1.83ZM8.49,13.93c-2.16.18-3.73,2.08-3.54,4.18s2.05,3.67,4.16,3.5,3.72-2.03,3.55-4.15-2.02-3.71-4.17-3.53ZM12.68,26.48v-2.43c-2.65.55-5.35.54-7.97-.04-1.45-.35-2.94-.88-4-1.91v1.67c.01.39.28.71.52.99.96.97,2.67,1.52,3.99,1.78,2.46.49,4.99.46,7.46-.07ZM29.11,27.32c.23-.29.47-.58.47-.95v-1.67c-.47.46-.98.8-1.57,1.08-2.9,1.38-6.98,1.53-10.1.94-1.57-.33-3.34-.87-4.51-2.03v1.61c0,.4.23.73.49,1.02.98,1.03,2.83,1.6,4.2,1.86,2.34.44,4.74.42,7.08-.05,1.29-.26,3.01-.83,3.94-1.81Z"/>
  <path d="M21.04,15.83c2.54-.26,4.77,1.61,5.02,4.09s-1.59,4.75-4.1,5-4.75-1.57-5.02-4.06,1.55-4.77,4.1-5.03ZM21.21,16.53c-2.17.16-3.75,2.04-3.58,4.15s2.02,3.69,4.14,3.54,3.73-2,3.58-4.13-1.98-3.72-4.14-3.56Z"/>
</svg>