<?xml version="1.0" encoding="UTF-8"?>
<svg xmlns="http://www.w3.org/2000/svg" viewBox="0 0 22.02 19.11" fill="none">
  <path d="M8.61,19.04C4.69,19.53.3,17.47.02,12.44c-.21-3.81,1.77-5.16,3.71-7.23C7.79.86,15.47-2.66,20.1,2.74c2.34,2.73,2.75,7.24.11,10.25-3.25,3.72-7.34,5.5-11.6,6.04ZM3.29,7.29c-1.89.76-2.7,3.85-2.31,5.95.32,1.69,1.79,3.51,3.46,4.13,6.49,2.44,17.71-3.77,16.67-10.55-.52-3.4-3.18-5.14-5.54-5.08,1.27,2.13,2.47,3.97,1.86,6.09-1.27-2.6-2.01-4.82-3.78-6.23-.98-.78-3.03-.11-3.52.77,1.91,2.22,3.68,4.22,2.98,7.33-1.01-2.57-1.92-4.88-3.73-5.93-1.61-.93-3.45-.21-4.14,1.75,1.92,1.5,4.66,3.16,3.81,6.31-1.15-3.01-2.87-5.7-5.75-4.54Z"
    stroke="currentColor"
    stroke-width="2"
    stroke-linecap="round"
    stroke-linejoin="round"
  />
</svg>