<?xml version="1.0" encoding="UTF-8"?>
<svg id="Layer_1" data-name="Layer 1" xmlns="http://www.w3.org/2000/svg" viewBox="0 0 30.41 24.51">
  <g id="lreqIz">
    <g>
      <path d="M10.74,9.32c-.09.87.55,2,1,2.56.27.34.57.55.89.81.46.37.89.79,1.32,1.24.23.23.4.62.67.81,2.09,1.51,2.05,1.68,4.6,1.78.83.03,1.63-.29,2.44-.42l.4-.06c.86-.13,1.38-.35,2.19-.47.53-.08,1.03-.09,1.54-.29.62-.25,1.23-.34,1.89-.49.56-.13,1.31-.22,1.7.45.6,1.03-.08,4.38-.44,3.84-.04-.05-.02-.19.02-.29.41-1,.61-2.25.26-3.34-.18-.55-1.28-.57-1.64-.32.21.57.41,1.27.34,1.87l-.13,1.11s-.14.12-.16.09c-.02-.04-.06-.14-.05-.19.12-1.2.19-1.44-.23-2.54l-.23.23s.02.18.04.29l.35,1.41c-.03.05-.15.14-.17.09s-.08-.15-.1-.21c-.11-.43-.41-1.63-.58-1.96-.04-.08-.26.04-.28.1l.21.8c.05.18.14.23.33.29l-.13.27.18.79c-.38.12-.26-.37-.44-.71l-.46.23.32.91c-.07.15-.25.03-.3-.11l-.24-.69c-.17.1-.29.18-.44.3l.32.81c-.03-.09-.05.84-.57-.93l-.32-1.12-.46.63c.19.6.45,1.32.65,1.88.02.06,0,.18-.01.22s-.15-.02-.17-.07l-.62-1.74c-.05.01-.17.16-.17.26,0,.1.04.3.08.4l.42,1.19c-.09.13-.25.03-.3-.13l-.33-1.06c-.04-.1-.27-.02-.31.07l.29.81s0,.17-.01.21-.17-.02-.19-.07l-.24-.68c-.03-.1-.09-.22-.15-.24-.06-.02-.22.09-.22.15l.32.78c.02.06-.12.18-.15.14s-.1-.13-.12-.18l-.6-1.61c-.05-.02-.16.04-.17.11,0,.08.03.25.06.34l.46,1.06s.02.23-.01.24c-.35.04-.47-1.31-.87-1.36.02-.28,0-.63-.17-.83-.09.1-.18.22-.18.3,0,.19.47,1.27.61,1.58.03.05.04.18.04.24s-.2.05-.22,0l-.56-1.44s-.14-.06-.16-.02c-.02.05-.06.19-.04.24l.22.7s0,.17,0,.21-.14.04-.16,0l-.64-1.79c-.09.06-.18.17-.26.32.24.73.5,1.44.81,2.14-.04.07-.09.16-.12.13s-.12-.12-.14-.17l-.7-1.85s-.15.05-.15.11c-.01.07.02.24.06.32l.45,1.11c.07.16,0,.85-.71-1.22l-.25-.73.08-.21c-.16-.07-.34.11-.39.33l.46,1.19s-.04.19-.07.17-.11-.09-.13-.13l-.39-.93s-.08-.1-.11-.11-.09.16-.07.19l.27.5c-.27.44-.66-.89-.72-1.07-.04-.11-.21-.12-.37-.08l.37.92s.04.11.05.14c.01.05-.16.06-.19.02l-.41-.87c-.07.03-.25.18-.21.26l.09.22s-.06.22-.09.18c-.42-.51-.31-1.24-.65-1.04l.26.63s-.06.15-.08.13c-.45-.32-.06-.96-1.22-1.14.09.3.14.47.13.71-.32-.21-.36-.6-.44-1-.13-.09-.3-.2-.46-.27.14.25.3.51.4.76.18.43-.47-.32-.58-.12-.12-.06-.36-.27-.43-.43l-.28-.6c-.07-.16-.05-.4-.2-.52l-.1.49-.31-.93c-.04-.13-.19-.29-.31-.41l.1.56c-.26-.06-.3-.47-.31-.76-.41-.43-.96-.73-1.37-1.19l-.47-.53c-.3-.34-.5-.74-.7-1.14-.39-.79-.42-1.55-.26-2.47.1-.54.1-1.06.19-1.72l-.43.09s-.15,0-.19-.01,0-.27.05-.29l.61-.18c.12-.04.21-.32.2-.52-.32,0-.73.13-1.02.25-.03.01-.66-.39,1.09-.59.09,0,.17-.22.2-.39-.36.08-.66.16-1,.28l-.12.05c.07-.03-.48-.25.77-.56.24-.06.49-.03.64-.31l-1.47.35s-.12-.22-.08-.24c.46-.25,1.49-.23,1.89-.62l1.41-1.75c.82-1.02,1.96-1.4,3.04-1.81.33-.12.63-.19.97-.25.25-.04.53-.2.79-.2,1.23-.02,2.04.11,3.05,1.06l.87.82c.33.31.62.63.91,1.01.17.23.38.41.57.65l.75.97c.21.27.45.48.65.75.43.58.75,1.26,1.1,1.93.59,1.13,1.14,2.24,1.78,3.31.34.56.63,1.12.92,1.73l.65,1.33.39.73c.45.84.6,1.83.62,2.84.02,1.08-.39,1.85-.83,2.66-.28.51-.52.95-.96,1.22-.5.31-.98.67-1.41,1.11-.4.41-.8.54-1.28.66-.54.14-1.07.35-1.6.56-1.43.58-1.51.09-2.77.53-.85.3-1.68.37-2.56.37-.98,0-1.52.27-2.5,0-.34-.09-1.48.42-2.65.18l-1.47-.3-2.47-.33c-1.12-.15-2.56-.31-3.62-.89l-1.02-.56c-.52-.28-1.34-1.21-1.79-1.74l-1.73-2.04c-.3-.35-.58-.76-.79-1.22l-.28-.6c-.56-1.21-.98-3.77-.41-5.14.4-.95,1-1.61,1.53-2.39l.88-1.28c.45-.65.88-1.68,1.55-2.07l.95-.56c1.26-.74.91-.27,1.87-.7,1.08-.49,2.16-.9,3.31-.93.42-.01.82.04,1.25-.05.11-.02.25-.02.36-.02-.04.36-.23.29-.42.3l-.93.02c-1.2.03-2.35.37-3.5.87s-.9.1-2.53,1.07c-.9.53-.99,1.08-1.68,2.1l-.92,1.35c-.43.63-.91,1.19-1.31,1.86-.23.38-.33.73-.41,1.2-.08.53-.14,1.01-.05,1.57.11.71.16,1.47.41,2.12.22.57.46,1.1.73,1.62.24.45.6.78.91,1.14l2.03,2.37c.57.66,1.24,1.03,1.94,1.38.61.3,1.22.53,1.87.65l1.37.24,1.35.2,1.2.16,1.18.2c.41.07.8.17,1.22.18,1.03.02.94-.22,1.07-.24.27-.05.64-.04.94-.05s.64.18.94.14c.84-.12,1.54-.16,2.39-.16.49,0,.95-.05,1.42-.22.81-.28,1.59-.33,2.42-.38.31-.02.66-.25.97-.38.65-.26,1.26-.46,1.93-.64.32-.09.56-.41.82-.64,1.38-1.26,1.45-.45,2.62-3.22.42-.99.22-2.42-.11-3.43-.1-.3-.2-.51-.42-.65-.33-.21-.63-.41-1.02-.47-.57-.09-1.32.04-1.85.19-.05.01-.13-.13-.11-.17s.09-.16.12-.16l.7-.13c.43-.08.84-.13,1.26-.02.23.06.42.39.7.21-.56-.46-1.27-.76-1.92-.63l-.31.06s-.12-.1-.13-.15c-.01-.06.1-.19.15-.2.68-.11,1.36.06,2.01.44,0-.34-.2-.49-.42-.61-.66-.38-1.11-.08-1.29-.31-.03-.04.06-.23.12-.23.34,0,.79.05,1.12.2-.15-.71-.77-.83-1.2-.72-.04,0-.1-.04-.12-.07-.14-.31.55-.41.88-.16-.4-.71-.49-.77-1.12-.77-.03,0-.1-.13-.08-.16s.1-.14.13-.13h.44s-.43-.78-.43-.78l-1.14-2.18c-.32-.62-.59-1.32-1.01-1.81l-1.03-1.23s-.09-.14-.12-.18c-.03-.05-.14.07-.18.07l-.47.03s-.14-.06-.17-.11.05-.2.1-.21l.48-.08-.23-.33c-.15.1-.22.11-.36.08-1.2-.25-1.71.5-1.88.5-.05,0-.1-.2-.08-.24.33-.48,1.43-.7,1.94-.62-.04-.36-.25-.38-.46-.36-.53.04-1.08.06-1.54.47l-.17.15c-.11.1-.53-.66,1.61-.99l-.34-.42c-.09.04-.21.11-.28.12l-.74.11s-.11-.16-.09-.19.1-.11.14-.12l.64-.16c-.51-.61-1.07-1.1-1.71-1.35s-1.38-.36-2.05-.21l-.9.2c-.66.15-1.28.44-1.92.69-.72.29-1.3.82-1.85,1.5-.5.61-1.02,1.25-1.44,1.93.01.08.03.22.03.28,0,.07-.18.09-.21.16-.37.81-.58,1.39-.68,2.38l-.19,1.85ZM27.27,15.17l-.44.04c.03.12.11.32.17.31.1-.03.22-.2.27-.34ZM15.22,15.52l-.47-.31c.07.27.33.57.48.64.03.02.12-.11.1-.16s-.08-.16-.11-.18ZM26.06,15.5c-.28.02-.33.04-.51.11.04.16.11.3.2.38l.31-.49ZM24.32,16.47l.52-.71c-.25,0-.54,0-.7.15s.05.56.18.56ZM25.19,16.64l.32-.49c-.05-.2-.13-.41-.22-.42-.11-.02-.33.14-.3.27.06.26.11.41.2.64ZM25.99,16.88l.48-.25c-.09-.34-.16-.57-.28-.89-.17.2-.29.37-.38.58l.18.57ZM23.61,16.29c.09,0,.23-.19.29-.35-.95-.02-.81.46-.73.42.03-.01.09-.05.11-.06l.15-.18s.13.18.18.17ZM22.37,16.44c0-.08.16.08.22.16.06.07.22-.22.19-.36-.22-.1-.52-.02-.72.17.02.2.08.42.16.58.07-.06.15-.13.15-.2v-.37ZM21.17,17.23c.23-.08.18-.37.1-.62-.05-.15-.29-.12-.4-.01l.3.63ZM24.01,16.45c-.11.03-.29.1-.28.17.03.13.11.37.16.49.21-.14.23-.4.12-.66ZM25.79,16.92l-.2-.48c-.12.12-.27.28-.32.42-.02.07.07.3.1.35l.42-.29ZM23.06,17.12l-.17-.46c-.06.07-.14.15-.17.21-.05.09.06.52.21.5.05,0,.15-.2.13-.25ZM23.59,16.86c-.21.03-.27.3-.2.5.06.17.16.33.36.13l-.17-.63Z"/>
      <path d="M13.95,23.57s-.19-.06-.18-.11.08-.17.13-.18c.4-.09.88-.19,1.28-.31.23-.07.38-.14.61-.11.58.06,1.15.12,1.73.11.27,0,.53-.33.81-.24.64.21.55-.34,1.29.13-.67.28-1.27.13-1.86.29-.85.23-1.75-.12-2.05-.04l-1.76.46Z"/>
      <path d="M12.02,22.92c.71.28,1.55.08,1.4.56l-1.49-.18c-1.22-.15-.68-.31-1.91-.86-.17-.08-.31-.05-.43-.32.29-.06.57,0,.85.18,1.17.73.51.19,1.59.62Z"/>
      <path d="M13.52,3.28c-.92,1.13-.99,2.1-1.25,2.19-.46.17,1.02-2.99,2.51-3.53.04-.01.13.05.16.09s-.06.2-.11.21c-.49.15-.93.57-1.3,1.03Z"/>
      <path d="M18.49,15.7c.05.02.13.1.16.14s-.1.2-.14.19c-.38-.06-.85-.27-1.22-.45-.2-.1-.44-.12-.65-.16-.3-.06-.61-.37-.46-.87l.27.44.86.27,1.18.43Z"/>
      <path d="M24.54,22.51c-1.2.55-2.39.29-3.62.43-.01-.12.11-.29.22-.28.91.04,1.79.03,2.7-.14.23-.04.46-.33.7,0Z"/>
      <path d="M2.34,17.21c.27,1.21.81.88,1.21,2.09-.29-.02-.4-.3-.6-.51-.9-.92-.96-2-.74-1.79.03.03.12.14.13.21Z"/>
      <path d="M16.9,20.03l.08.18-.24-.02s-.06-.14-.04-.18l.1-.18h-.3s-.16-.07-.19-.13c-.18-.35.95-.89,1.17-.48.14.26-.8.09-.87.38h.51c.09,0,.24.11.24.23l-.46.2Z"/>
      <path d="M13.33,12.61c-.28-.34-.65-.7-1-.94-.11-.08-.34-.4-.32-.6,0-.06.09-.16.13-.21.15.33.29.56.54.72,1.04.68.88,1.31.65,1.02Z"/>
      <path d="M27.94,15.19c.52-.51.71,1.94.21,2.11.13-.79.08-1.45-.21-2.11Z"/>
      <path d="M29.1,15.98c.25.63-.43,2.59-.57,2.2-.02-.05-.03-.18,0-.24.45-1.02.41-1.68.52-1.91,0-.02.05-.07.05-.05Z"/>
      <path d="M19.23,8.69c-.46.06-.49.39-.71.21-.05-.04.03-.28.08-.31.43-.21.96-.25,1.41-.25l.03.18s-.07.07-.1.07l-.7.1Z"/>
      <path d="M10.52,16.15l-.1.24c-.09.21-.65-.26.88-1.31.04-.03.16,0,.18.05.11.22-.73.56-.95,1.02Z"/>
      <path d="M20.75,9.56l-1.34-.21c.11-.35.34-.26.55-.23l.86.14s.08.13.08.17c0,.06-.11.13-.16.13Z"/>
      <path d="M18.67,1.7c-.24.04-.44.18-.67.37-.1-.29.17-.53.39-.58l.88-.21s.16.08.16.14c0,.07-.09.16-.15.17l-.62.11Z"/>
      <path d="M7.69,20.37c-.85.11-.97.72-.92.73l-.16-.03c-.05,0-.06-.26-.02-.32.18-.36,1.17-1.03,1.11-.38Z"/>
      <path d="M19.65,7.85c.16.26-.62.11-1.01.41l-.21.16c-.05.04-.18-.13-.17-.24.21-.23,1.21-.63,1.39-.33Z"/>
      <path d="M7.81,11.95c-.05-.22.09-.33.22-.36.35-.08.66-.18,1.01-.29.13-.04.24-.02.3.21l-1.52.44Z"/>
      <path d="M12.85,22.72l-1.25-.25c-.08-.02-.17-.25-.1-.35l1.25.3s.08.13.11.3Z"/>
      <path d="M8.58,10.18s-.16-.12-.13-.16c.03-.05.13-.15.18-.16.35-.08,1.14-.33,1.3-.31.05,0,.05.23-.01.24-.33.06-.92.22-1.34.39Z"/>
      <path d="M5.92,20.37l-.19.38c-.59-.53,1.35-1.34,1.11-.93-.02.03-.07.12-.11.14l-.8.41Z"/>
      <path d="M7.18,7.13c-.26-.39.23-.65.36-.99l.37-.19s.15.03.18.07c.13.17-.28.21-.66.76l-.24.36Z"/>
      <path d="M25.36,7.26c-.25-.02-.72-.01-.98.06-.08.02-.17.01-.23-.02-.05-.03.06-.29.12-.3,1.62-.19,1.11.25,1.09.25Z"/>
      <path d="M8.66,22.38l-1.25.07s-.15-.12-.15-.17c0-.06.11-.16.16-.14.92.25,1.28-.34,1.25.25Z"/>
      <path d="M21.02,15.25c-.21.37-1.14.44-1.06.22.02-.04.07-.15.11-.16l.87-.23s.09.14.07.17Z"/>
      <path d="M11.59,10.32c-.08.02-.18-.05-.22-.14-.22-.53.07-1.31.3-1.28.18.02-.35.66-.08,1.42Z"/>
      <path d="M8.66,10.85s-.12-.04-.11-.07c.02-.04.07-.19.1-.2l.77-.3c.13-.05.3.06.27.21l-1.04.36Z"/>
      <path d="M5.13,20l-.19.17s-.42-.24.69-.88c.03-.02.13,0,.16,0,.04,0,.06.19.02.22-.17.11-.51.32-.68.48Z"/>
      <path d="M8.12,20.95c-.19.09-.35.22-.51.4-.05.05-.15-.18-.13-.26s.1-.19.19-.24c.64-.41.65,0,.63.02l-.17.08Z"/>
      <path d="M28.61,16.29c.39.53-.2,1.65-.23,1.33s.14-.66.23-1.33Z"/>
      <path d="M12.45,19.98s-.13-.06-.12-.1c0-.05.08-.18.12-.19l.73-.15s.14.07.13.11-.07.15-.11.16l-.74.17Z"/>
      <path d="M3.17,10.11s-.12.07-.15.08c-.3.06.69-1.39.68-.98,0,.04-.02.16-.05.2l-.48.7Z"/>
      <path d="M27.67,20.31c.33.26-.66.82-.76.62-.02-.05.04-.18.08-.21l.68-.41Z"/>
      <path d="M15.32,5.58l-.81.31-.11-.19c.71-.57,1.21-.23.92-.12Z"/>
      <path d="M10.69,16.71s-.11.05-.1.01c.02-.42.68-1.07.74-.85.02.06-.02.19-.06.23l-.58.61Z"/>
      <path d="M4.44,19.69c-.14.08-.37-.32.61-.63.03,0,.11.08.13.1.03.04-.07.13-.11.15l-.63.38Z"/>
      <path d="M24.18,9.68c-.06,0-.14-.01-.17-.02-.05-.01.04-.25.09-.25l.67-.07s.14.06.16.08-.03.19-.06.2l-.69.06Z"/>
      <path d="M22.68,20.83c.32.17-.9.6-.93.48-.02-.21.75-.57.93-.48Z"/>
      <path d="M24.01,14.85c-.21.4-.56.36-.85.38l-.04-.17c-.05-.21.81-.27.9-.21Z"/>
      <path d="M4.7,6.96c-.09-.08-.05-.34.05-.42l.49-.41s.15.06.14.11-.04.13-.07.16l-.61.56Z"/>
      <path d="M23.64,4.93l-.67.06c-.26.02.09-.55.75-.26.02,0,.05.12.05.15.01.03-.05.04-.14.05Z"/>
      <path d="M16.71,22.5s-.1.03-.1,0c0-.05-.02-.24,0-.28l.32-.73c.02-.05.15-.06.17,0s0,.2-.02.26l-.35.76Z"/>
      <path d="M6.55,16.82c.3-.02-.53,1.03-.63,1.1-.1-.23.44-1.09.63-1.1Z"/>
      <path d="M5.4,21.07c-.21.24-.51.04-.63-.27l-.07-.17s.05-.16.09-.14.11.07.14.1l.48.48Z"/>
      <path d="M3.3,10.68c-.14.19-.3-.23.36-.81.03-.03.16.03.15.08s-.06.15-.09.19l-.42.54Z"/>
      <path d="M28.81,16.25l-.19-.73c-.04-.08-.09-.4,0-.36.3.13.38.7.19,1.09Z"/>
      <path d="M1.08,11.56c-.26-.41,1.08-1.24,1.05-.82-.43.16-.77.34-1.05.82Z"/>
      <path d="M21.54,13.12c-.08.07-.1-.29-.02-.35l.4-.34s.17,0,.16.05l-.03.23-.5.42Z"/>
      <path d="M20.76,12.93c-.17-.36.12-.48.29-.59.12-.08.2-.17.32.07l-.62.52Z"/>
      <path d="M17.89,22.09c-.04.07-.09.13-.11.16,0,.01-.3-.1.31-.88.03-.03.15.02.18.04s-.03.13-.06.18l-.31.49Z"/>
      <path d="M25.05,7.7c-.12.13-.59.15-.79.11,0-.46,1-.34.79-.11Z"/>
      <path d="M22.47,7.23c-.05.05-.09.09-.12.1-.03.02-.09-.16-.08-.2.04-.21.26-.58.5-.41.03.02.03.14.02.18l-.32.33Z"/>
      <path d="M13.41,4.51c-.09,0-.13-.28-.08-.37l.29-.46s.12-.02.15.01.02.18,0,.22l-.35.61Z"/>
      <path d="M18.85,2.25s-.1.01-.12.01c-.18,0,.15-.48.57-.48.03,0,.12.13.1.17s-.08.12-.12.14l-.44.16Z"/>
      <path d="M.74,12.39l-.11.12c.06-.06-.35.05.57-.88.02-.02.11-.03.14-.04s.02.13,0,.15l-.59.64Z"/>
      <path d="M6.3,18.3s-.1.14-.12.1c-.14-.37.49-1.08.54-.76,0,.05-.03.12-.07.18l-.35.49Z"/>
      <path d="M14.5,6.4c0-.16.02-.24.08-.32l.5-.18s.1.13.08.16-.09.13-.11.14l-.55.21Z"/>
      <path d="M24.78,10.11l-.5.06s-.1-.03-.13-.03c-.06-.02-.01-.34.56-.3l.1.05s0,.21-.03.22Z"/>
      <path d="M2.35,13.73s-.17.03-.19-.03-.01-.2.02-.24l.27-.28s.12-.03.16,0,.07.17.04.21l-.29.35Z"/>
      <path d="M8.25,6.38c-.07.2-.33.47-.53.57-.05-.26.13-.43.26-.59l.12-.15s.16.11.14.17Z"/>
      <path d="M14.24,11.94s-.16-.07-.15-.12.05-.18.08-.2l.47-.2s.09.23.05.25l-.45.26Z"/>
      <path d="M8.97,5.22c-.12.19-.39.39-.58.14.1-.16.37-.33.52-.4.04-.02.09.21.06.26Z"/>
      <path d="M14.95,22.49s-.09.08-.11.09c-.03,0-.08-.15-.06-.19l.2-.47c.03-.06.13-.1.16-.07s.05.2.02.25l-.2.39Z"/>
      <path d="M16.83,17.22c-.21-.16-.35-.41-.39-.71.28-.05.48.31.39.71Z"/>
      <path d="M12.5,21.7c-.29.05-.55,0-.74-.26.28-.18.56-.05.74.26Z"/>
      <path d="M16.31,21.82l-.28.64c-.24-.12.09-.95.23-.87.04.03.07.17.05.23Z"/>
      <path d="M1.08,13.75c-.07.18-.2.51-.27.76-.17-.2-.07-.57.08-.79l.09-.13s.13.1.11.16Z"/>
      <path d="M9.45,12.21s-.13-.02-.16-.02.02-.17.05-.18l.51-.23s.11.1.1.13-.06.12-.08.13l-.41.19Z"/>
      <path d="M19.31,9.99c-.16.12-.42.25-.54-.03.11-.06.3-.15.45-.22.04-.02.14.22.1.25Z"/>
      <path d="M25.06,21.59c-.14.18-.23.32-.42.18l.43-.57c.1.07.08.29,0,.39Z"/>
      <path d="M15.72,21.87l-.24.5s-.15-.11-.13-.15c.09-.24.2-.7.4-.56.03.02.01.13-.02.21Z"/>
      <path d="M1.06,12.7l-.35.61c-.06-.3.07-.53.2-.75l.06-.08s.11-.03.12,0,0,.17-.03.21Z"/>
      <path d="M15.72,3.62l-.49.28c-.07-.36.27-.48.42-.5.03,0,.07.16.07.22Z"/>
      <path d="M10.94,14.92c.12.17-.37.55-.47.4.09-.17.32-.62.47-.4Z"/>
      <path d="M6.03,17.15s-.09.11-.12.12c-.03.02-.1-.16-.08-.2l.26-.52.11.05s.01.15,0,.18l-.17.38Z"/>
      <path d="M2.71,14c-.08.2-.4.4-.44.21-.03-.14.19-.36.29-.36.04,0,.16.11.15.15Z"/>
      <path d="M19.68,21.5l-.27.52c-.12-.2-.05-.41.05-.57l.1-.15s.13.15.11.2Z"/>
      <path d="M7.47,11.02c-.12.21-.31.32-.44.23-.02-.12.08-.28.17-.32s.2-.03.27.09Z"/>
      <path d="M9.72,8.89c-.16.14-.35.21-.53.19.04-.31.34-.48.53-.19Z"/>
      <path d="M13.86,20.55c-.07.32-.33.19-.46.1-.05-.04.06-.27.11-.25.08.03.25.11.35.15Z"/>
      <path d="M14.92,20.02c-.02.22-.29.31-.38.2-.03-.07.07-.25.13-.3.07-.05.26-.08.25.1Z"/>
      <path d="M16.14,8.04c-.08.05-.26.14-.35.16-.04.01-.08-.24-.04-.26l.18-.08.16-.07s.09.21.05.24Z"/>
      <path d="M7.22,6.19l-.23.36c-.19-.21-.03-.34.07-.49l.06-.1s.11-.01.12.03,0,.17-.03.2Z"/>
      <path d="M6.93,18.4c-.02.19-.15.44-.3.42-.04-.09.03-.32.09-.41l.08-.13s.13.07.13.12Z"/>
      <path d="M1.31,14.87l-.11.52c-.09-.11-.16-.36-.11-.48.02-.04.08-.14.1-.17s.13.08.12.13Z"/>
      <path d="M9.03,18.94c0,.15-.35.19-.39.04.02-.21.36-.35.39-.04Z"/>
      <path d="M13.33,15.87c-.06.08-.26.19-.32.11-.06-.09.09-.31.16-.33l.14-.02s.04.2.01.24Z"/>
    </g>
  </g>
</svg>