<?xml version="1.0" encoding="UTF-8"?>
<svg id="Icons" xmlns="http://www.w3.org/2000/svg" viewBox="-6 -6 38.04 40.16">
  <path d="M10.9,19.2l-4.56,4.92c.6.88.59,2.08.04,2.97s-1.58,1.18-2.54,1.02c-1.13-.19-1.31-1.44-1.89-2.07s-1.72-.8-1.91-1.99c-.16-1.06.06-2.14.91-2.78s1.94-.64,2.77.02l4.55-4.92c-.21-.87-.15-1.72.09-2.57.3-1.04.69-2.02,1.08-3.03.1-.25,0-.54.02-.8.26-3.3,2.1-6.37,4.54-8.28s5.31-2.31,7.92-.79c1.43.83,2.61,2.12,3.34,3.69,1.31,2.8.85,5.91-.82,8.41-1.95,2.92-5.19,5.02-8.59,4.95l-1.49.68c-1.13.52-2.2.95-3.49.57ZM12.91,18.17c.72-.26,1.39-.57,2.08-.9.27-.13.51-.23.8-.33,3.14.13,6.19-1.87,7.98-4.58,1.47-2.22,1.85-4.99.64-7.45-.68-1.37-1.72-2.48-3-3.19-2.22-1.23-4.69-.84-6.7.68-2.29,1.72-4.05,4.57-4.3,7.62.01.38.06.77-.08,1.13-.38.99-.76,1.94-1.06,2.96-.19.66-.24,1.32-.09,1.99.41,1.84,2.18,2.64,3.74,2.07ZM3.04,25.48c-.08.76.36,1.42.98,1.63.65.23,1.35-.08,1.68-.71s.22-1.42-.29-1.92c-.2-.19-.21-.48-.04-.71l4.59-4.96c-.56-.37-.99-.82-1.31-1.42l-4.56,4.93c-.2.23-.5.23-.69,0-.47-.56-1.2-.69-1.8-.31s-.84,1.12-.63,1.81.81,1.13,1.49,1.05c.17-.02.32.01.44.15.08.09.15.26.13.45Z"/>
  <path d="M19.07,3.93c-1.46-.23-2.78.6-3.78,1.67-.13.14-.31.15-.45.04-.1-.08-.18-.32-.05-.47.45-.52.95-.94,1.53-1.29,1.86-1.13,3.87-.85,5.39.75.15.16.17.36.05.52s-.35.15-.49,0c-.6-.65-1.34-1.09-2.18-1.22Z"/>
</svg>