<?xml version="1.0" encoding="UTF-8"?>
<svg id="Icons" xmlns="http://www.w3.org/2000/svg" viewBox="0 0 27.58 17.04">
  <path d="M13.17,2.51c.16.11.35.07.49-.02-.07-.51.29-1.12.69-1.31.2-.1.42-.09.59.06.02-.05.05-.14.09-.16.09-.03.29,0,.32.13-.05.2-.64,1.35-.28,1.35h2.34c.32-.01.21.25.49.37l.49.21c.27.11.49.29.7.52.2-.42.59-.59.99-.48.19.05.37.07.57.04l.42-.05c.31-.04.46.15.69.29.34.21.76.12,1.3.66.08.08.22.09.2.28-.02.33.47.47.75.59.32.14.09.37.21.66l.17.43c.05.11.02.26-.01.39.17.21.25.49.36.73.08.17.26.25.31.48.03.14.05.32.09.46.06.22.15.4.11.64l-.07.38.34.61c.47.85.3,1.63.42,2.29.03.18.07.36.06.54l-.07,1.08c.46.5.55,1.04.66,1.73.28.11.51.32.65.62l.31.68c.03.05.02.16,0,.21-.03.06-.11.13-.19.13l-7.95-.03h-2.92s-3.71-.02-3.71-.02h-5.55s-.64,0-.64,0c-.15,0-.32-.12-.32-.32v-4.37s-6,0-6,0c-.15,0-.29-.14-.29-.32V2.81c0-.19.16-.32.31-.32h2.23c.18-.45.57-1.49.49-1.96-.08-.14-.23-.14-.34-.03-.23.25-.27.63-.15.98-.07.04-.16.05-.23.03-.26-.11-.26-.92.2-1.33.17-.15.39-.21.59-.12.36.15.29.66.23,1.02C3.56.71,3.86.04,4.29,0c.11-.01.22.03.28.11.05.07.09.22.07.33-.08.37-.18.71-.28,1.08l-.21.76s0,.16.03.2c.1.15.44.09.61,0-.22-.49-.07-1.09.38-1.31.15-.07.33-.09.46,0,.15.11.17.32.13.51-.07.32-.26.56-.48.77.19.17.46.14.65.01-.01-.57.3-1.58.5-2.1.07-.2.23-.39.41-.28.08.05.09.17.1.26.01.31-.19.47-.3.71s-.43,1.31-.29,1.45c.04.03.13.02.18-.02.2-.17.3-.47.31-.75-.06-.03-.14-.06-.17-.09-.06-.06-.06-.32.04-.4.04-.04.15-.06.21-.04.39.12.22,1.05-.06,1.36.56.19.8-.77.95-1.2-.11-.17-.08-.41.08-.5.06-.03.18-.01.23.04.05.07.04.18.02.29l.31.22c.09.07.15.2.1.33l-.19.5c-.03.08-.05.19-.03.27.17.09.37.08.53-.02-.07-.51.3-1.13.68-1.31.2-.09.42-.1.58.06l.06-.15c.11-.06.29-.02.35.11-.1.26-.48,1.07-.38,1.3.33.35.97-.81,1.08-1.07-.04-.14-.07-.31.04-.42.09-.08.26-.18.37-.05s0,.32-.11.43c.28.31.36.76.11,1.12.19.1.41.03.51-.17.06-.11.11-.23.15-.36l.45-1.66c.03-.12.07-.24.16-.27.11-.05.24-.05.32.08l-.53,1.69h.25c.27-.29.12-.77.39-.71.04,0,.09.02.11.05.11.14-.15.61-.32.72.2.23.02.33.07.62ZM20.4,3.61c-.26.02-.77-.33-1.04.26-.04.09-.14.17-.21.18-.29.06-.32-.32-.83-.54l-.56-.24c-.17-.07-.3-.18-.37-.41l-2.48-.03c-.08,0-.23-.05-.27-.13-.05-.11-.02-.26-.01-.38-.47.76-.73.45-.89.45-.07,0-.98.22-.93-.24l.04-.39-.28.05-.15.6c-.07.05-.33.08-.32-.03l-.02-.06c-.22.24-.47.07-.7.08-.26.02-.53.14-.76-.11-.23.18-.55.23-.79.06-.1-.07-.04-.27-.03-.4-.19.29-.49.71-.9.41-.25.11-.52.12-.79.05-.53-.12.14-.99,0-1.17-.03-.04-.1-.08-.14-.1-.11.35-.23.67-.4.94-.25.4-.58.38-.94.32-.19-.03-.44.15-.62-.09-.3.19-.77.16-1.04-.04-.3.13-.6.22-.92.13-.22-.06-.35-.28-.3-.54.12-.61.33-1.06.47-1.69,0-.03-.01-.1-.03-.12-.06-.1-.26.12-.31.2-.46.65-.81,1.36-1.05,2.15-.1.07-.2.06-.32.06H.32s0,9.1,0,9.1h.31s5.68,0,5.68,0c.16,0,.3.1.3.3v4.38s.88,0,.88,0h4.6s3.94,0,3.94,0h3.02s7.21.03,7.21.03h.92c-.16-.38-.3-.76-.63-.89-.16-.06-.25-.18-.28-.37-.21-1.55-.64-1.28-.65-1.76,0-.4.1-.8.05-1.21s-.1-.75-.11-1.14c0-.46-.09-.93-.3-1.32-.13-.23-.26-.43-.37-.67-.12-.26.2-.62-.06-1.02l-.06-.39c-.03-.16-.11-.28-.22-.36-.22-.15-.04-.34-.44-.87-.1-.13-.09-.27,0-.41l-.16-.4c-.07-.16-.09-.34-.09-.53-.37-.18-.83-.26-.91-.81-.11-.08-.2-.23-.31-.3-.29-.18-.6-.26-.92-.35-.12-.03-.2-.11-.29-.2-.18-.22-.64-.07-1.03-.05ZM5.46,1.43s-.12-.01-.16.01c-.23.17-.3.53-.17.81.23-.11.53-.75.33-.83ZM10.02,1.5c-.35-.37-1,.76-.78,1,.02.02.1.03.13.02.31-.16.51-.66.65-1.01ZM14.84,1.5c-.34-.37-1,.75-.78.99.02.03.1.03.13.02.31-.16.51-.66.65-1.01ZM11.09,2.57c.34-.11.32-.6.23-.84-.12.24-.26.44-.41.64l.18.21Z"/>
</svg>