<?xml version="1.0" encoding="UTF-8"?>
<svg id="Icons" xmlns="http://www.w3.org/2000/svg" viewBox="0 0 27.39 29.51">
  <path d="M6.93,8.06c-1.4,2.07-2.14,4.17-1.35,6.5l.37,1.1c.08.22-.02.46-.2.6s-.45.21-.73.17c-1.35-.16-2.37-1.34-3.12-2.24-.16.51-.24,1-.28,1.52-.08,1.1-.12,2.19-.05,3.29.18,2.64,1.4,5.05,3.7,6.94,1.21.99,2.62,1.77,4.15,2.41.37.16.43.56.26.83s-.62.41-1,.26c-1.51-.61-2.89-1.38-4.12-2.31C1.64,24.91.18,22.01.02,18.79c-.05-1.11,0-2.2.08-3.32.08-.97.35-2.26,1.14-3.01.18-.17.45-.25.74-.21.25.03.45.19.59.39.39.61.84,1.17,1.36,1.7-.09-.56-.21-1.07-.21-1.64,0-1.26.34-2.45.91-3.61.49-1.01,1.1-1.94,1.84-2.84l.48-.59c.21-.26.63-.34.94-.23.36.12.52.4.46.72-.26,1.27.28,2.57,1.31,3.55.56-.48.95-1.01,1.27-1.62.68-1.3.93-2.71.74-4.12-.16-1.19-.48-2.05-1.07-3.14-.13-.25.01-.53.24-.68s.62-.2.88-.05c.56.33,1.05.69,1.55,1.09,3.17,2.54,5.41,5.83,6.62,9.33.68-.92,1.22-1.86,1.03-2.97-.05-.3.21-.57.52-.66.39-.11.74.05.95.32,1.91,2.51,3.72,5.47,4.58,8.34.4,1.34.51,2.65.34,4.02-.19,1.56-.68,3.05-1.56,4.44-1.54,2.42-4.03,4.2-7,5.43-.42.17-.91.02-1.07-.3-.19-.38.04-.69.48-.86,1.29-.52,2.45-1.18,3.51-1.97,1.83-1.36,3.11-3.1,3.73-5.05.45-1.44.6-3.1.29-4.57-.52-2.44-1.97-5.01-3.43-7.2-.02-.02-.04,0-.07.03-.44,1.03-1.15,1.96-2.04,2.78-.19.18-.44.27-.73.23-.22-.03-.54-.17-.61-.4-.41-1.45-.95-2.86-1.7-4.23-1.03-1.87-2.37-3.59-4.1-5.14.61,2.44.16,5.15-1.62,7.2-.36.42-.8.78-1.32,1.05-.44.23-.88.13-1.21-.16-.9-.8-1.59-1.69-1.92-2.79Z"/>
  <path d="M20.55,23.56l-6.27,5.72c-.31.28-.83.23-1.13-.04l-6.32-5.76c-.99-.9-1.53-2.05-1.49-3.27,0-1.22.58-2.38,1.61-3.23,1.89-1.58,4.92-1.58,6.79.02,1.56-1.34,4.03-1.59,5.93-.59.7.37,1.24.84,1.67,1.42,1.06,1.49,1.07,3.33.04,4.83-.23.34-.51.61-.83.9ZM16.23,17.15c-.77.2-1.39.61-1.84,1.16-.14.17-.36.28-.58.29-.69.04-.65-.42-1.5-.98-1.12-.74-2.65-.78-3.82-.08-.73.44-1.21,1.05-1.46,1.77-.38,1.16-.08,2.41.91,3.31l5.8,5.28,5.98-5.5c1.23-1.13,1.11-2.89.16-4.11-.84-.98-2.23-1.51-3.66-1.14Z"/>
</svg>