<?xml version="1.0" encoding="UTF-8"?>
<svg xmlns="http://www.w3.org/2000/svg" viewBox="0 0 120 120">
  <!-- Alternating chicken marks (cohesive scale) -->
  <g fill="none" stroke="#000" stroke-opacity=".35" stroke-width="2" stroke-linecap="round" stroke-linejoin="round">
    <!-- fried-chicken-icon (scaled down + padded) -->
    <g transform="translate(16 18) scale(1.35)">
      <path d="M10.9,19.2l-4.56,4.92c.6.88.59,2.08.04,2.97s-1.58,1.18-2.54,1.02c-1.13-.19-1.31-1.44-1.89-2.07s-1.72-.8-1.91-1.99c-.16-1.06.06-2.14.91-2.78s1.94-.64,2.77.02l4.55-4.92c-.21-.87-.15-1.72.09-2.57.3-1.04.69-2.02,1.08-3.03.1-.25,0-.54.02-.8.26-3.3,2.1-6.37,4.54-8.28s5.31-2.31,7.92-.79c1.43.83,2.61,2.12,3.34,3.69,1.31,2.8.85,5.91-.82,8.41-1.95,2.92-5.19,5.02-8.59,4.95l-1.49.68c-1.13.52-2.2.95-3.49.57ZM12.91,18.17c.72-.26,1.39-.57,2.08-.9.27-.13.51-.23.8-.33,3.14.13,6.19-1.87,7.98-4.58,1.47-2.22,1.85-4.99.64-7.45-.68-1.37-1.72-2.48-3-3.19-2.22-1.23-4.69-.84-6.7.68-2.29,1.72-4.05,4.57-4.3,7.62.01.38.06.77-.08,1.13-.38.99-.76,1.94-1.06,2.96-.19.66-.24,1.32-.09,1.99.41,1.84,2.18,2.64,3.74,2.07ZM3.04,25.48c-.08.76.36,1.42.98,1.63.65.23,1.35-.08,1.68-.71s.22-1.42-.29-1.92c-.2-.19-.21-.48-.04-.71l4.59-4.96c-.56-.37-.99-.82-1.31-1.42l-4.56,4.93c-.2.23-.5.23-.69,0-.47-.56-1.2-.69-1.8-.31s-.84,1.12-.63,1.81.81,1.13,1.49,1.05c.17-.02.32.01.44.15.08.09.15.26.13.45Z"/>
      <path d="M19.07,3.93c-1.46-.23-2.78.6-3.78,1.67-.13.14-.31.15-.45.04-.1-.08-.18-.32-.05-.47.45-.52.95-.94,1.53-1.29,1.86-1.13,3.87-.85,5.39.75.15.16.17.36.05.52s-.35.15-.49,0c-.6-.65-1.34-1.09-2.18-1.22Z"/>
    </g>

    <!-- chicken-wing-two (scaled to match) -->
    <g transform="translate(62 64) scale(2.0)">
      <path d="M16.69,24.33c-1.2.62-2.52-.41-3.49-1.42-.55-.57-1.06-1.17-1.55-1.84l-1.72-2.36c-.48-.66-.93-1.3-1.44-1.92-.28-.33-.55-.64-.9-.88-.97,2.69-2.36,5.24-4.12,6.99-.46.46-.93.85-1.46,1.17-.46.28-1.24.66-1.73.35-.14-.09-.29-.26-.29-.48-.03-1.51,1.18-3.65,1.78-4.86l.71-1.46c-.17-.11-.31-.31-.29-.55.19-3.08,1.12-6,2.62-8.22.42-.61.87-1.15,1.37-1.61.11-.1.22-.12.35-.07,1.56.54,2.72,1.34,4.14,2.34l1.51,1.06c.75.53,1.84,1.11,2.67,1.22.1-.2.17-.39.23-.61l.27-1.02c.07-.28.16-.53.3-.76.11-.2.31-.45.52-.4.61.14,1.17.55,1.65,1.09l.91,1.04c.68.77,1.4,1.43,2.15,2.05.15.13.24.28.24.54-.01,1.03-.67,1.76-.76,2.63-.05.53-.08,1.05-.1,1.59-.06,1.38-.14,2.74-.61,3.95-.6,1.56-1.68,2.26-2.98,2.44ZM16.49,23.42c1.13-.13,2.1-.7,2.6-2.09.42-1.16.46-2.54.52-3.84.03-.6.05-1.18.16-1.75s.54-1.28.67-1.9c-.95-.78-1.81-1.64-2.63-2.62-.51-.61-.91-1.07-1.58-1.31-.09.18-.16.35-.22.55l-.33,1.22c-.1.37-.39,1.05-.73,1.02-1.16-.11-2.4-.85-3.44-1.59l-1.63-1.16c-1.11-.77-2.19-1.45-3.39-1.86-2.05,2.02-3.3,5.28-3.6,8.73l.17.12c.22.16.29.49.18.76-.15.39-.31.74-.49,1.11l-.93,1.84c-.39.77-.98,2.04-1.13,2.97.76-.04,1.74-.86,2.33-1.44,1.78-1.76,3.13-4.32,4.07-7.01.17-.47.72-.12.97.08.67.55,1.43,1.58,1.99,2.36l1.4,1.95c.5.69.99,1.33,1.53,1.96.85,1,2.4,2.63,3.51,1.91Z"/>
    </g>
  </g>
</svg>
